<svg width="539" height="381" viewBox="0 0 539 381" fill="none" xmlns="http://www.w3.org/2000/svg">
<mask id="path-1-inside-1_1_438" fill="white">
<path d="M524.86 255.652C524.89 257.965 524.459 260.261 523.594 262.407C522.729 264.553 521.447 266.505 519.821 268.151C518.195 269.797 516.259 271.104 514.124 271.995C511.989 272.887 509.699 273.346 507.385 273.345H382.572C384.386 276.66 385.077 280.474 384.541 284.215C384.005 287.955 382.272 291.422 379.601 294.095C378.582 295.11 377.444 295.999 376.212 296.743H399.269C408.913 296.743 417.076 304.356 417.2 313.99C417.229 316.303 416.797 318.599 415.932 320.745C415.067 322.89 413.784 324.843 412.159 326.489C410.533 328.135 408.597 329.443 406.463 330.335C404.329 331.228 402.039 331.689 399.725 331.69H285.115C281.291 331.689 277.572 330.434 274.529 328.116C271.486 325.799 269.287 322.547 268.27 318.86C267.253 315.173 267.473 311.254 268.897 307.704C270.322 304.154 272.871 301.17 276.154 299.208H207.497C197.853 299.208 189.69 291.595 189.566 281.961C189.526 278.841 190.322 275.768 191.871 273.06C193.42 270.352 195.666 268.108 198.375 266.561C195.537 265.088 193.157 262.863 191.497 260.13C189.836 257.396 188.958 254.259 188.959 251.061V229.661C188.956 226.928 189.596 224.233 190.826 221.793C192.056 219.352 193.842 217.235 196.04 215.612H72.6603C63.0253 215.612 54.8723 208.018 54.7293 198.393C54.695 196.076 55.1218 193.776 55.9849 191.626C56.848 189.476 58.1302 187.518 59.7568 185.869C61.3834 184.219 63.322 182.909 65.4596 182.015C67.5973 181.121 69.8914 180.662 72.2083 180.663H80.9283C84.5088 180.663 87.9425 179.241 90.4743 176.709C93.006 174.177 94.4283 170.743 94.4283 167.163V167.153C94.4283 163.573 93.006 160.139 90.4743 157.607C87.9425 155.075 84.5088 153.653 80.9283 153.653H22.8833C18.2499 153.653 13.8062 151.812 10.5298 148.536C7.25348 145.26 5.41284 140.816 5.41284 136.182C5.41284 131.549 7.25348 127.105 10.5298 123.829C13.8062 120.553 18.2499 118.712 22.8833 118.712H106.808C111.442 118.713 115.886 116.874 119.163 113.598C122.44 110.323 124.282 105.879 124.283 101.246C124.285 96.6125 122.445 92.1684 119.17 88.8912C115.894 85.614 111.451 83.7722 106.817 83.771H82.8463C73.1923 83.771 65.0293 76.139 64.9253 66.486C64.9002 64.1755 65.3337 61.883 66.2006 59.7412C67.0675 57.5994 68.3508 55.6509 69.9759 54.0084C71.6011 52.3659 73.5359 51.0622 75.6684 50.1726C77.801 49.283 80.0887 48.8253 82.3993 48.826H241.799C251.187 48.826 259.246 56.05 259.699 65.437C259.853 68.5341 259.182 71.6165 257.753 74.369H463.332C467.966 74.369 472.409 76.2096 475.686 79.486C478.962 82.7623 480.803 87.206 480.803 91.8395C480.803 96.473 478.962 100.917 475.686 104.193C472.409 107.469 467.966 109.31 463.332 109.31H387.185C387.182 113.069 385.687 116.674 383.03 119.333C380.372 121.991 376.768 123.487 373.008 123.492H287.175C289.719 125.893 291.483 129.003 292.238 132.419C292.994 135.834 292.707 139.398 291.414 142.648C290.121 145.898 287.882 148.685 284.987 150.648C282.091 152.611 278.673 153.66 275.175 153.658H251.175C250.231 153.657 249.295 153.841 248.422 154.202C247.548 154.562 246.755 155.091 246.086 155.759C245.417 156.426 244.887 157.219 244.524 158.091C244.162 158.964 243.976 159.899 243.975 160.844V160.854C243.976 161.799 244.162 162.734 244.524 163.607C244.887 164.479 245.417 165.272 246.086 165.939C246.755 166.607 247.548 167.136 248.422 167.496C249.295 167.857 250.231 168.041 251.175 168.04H445.989C450.623 168.04 455.067 169.881 458.343 173.157C461.619 176.433 463.46 180.877 463.46 185.51C463.46 190.144 461.619 194.588 458.343 197.864C455.067 201.14 450.623 202.981 445.989 202.981H395.608C398.163 204.544 400.274 206.737 401.738 209.35C403.203 211.963 403.972 214.908 403.971 217.903V222.886C403.973 226.092 403.092 229.236 401.424 231.974C399.756 234.711 397.367 236.937 394.517 238.406H506.929C516.573 238.406 524.736 246.019 524.86 255.653"/>
</mask>
<path d="M524.86 255.652C524.89 257.965 524.459 260.261 523.594 262.407C522.729 264.553 521.447 266.505 519.821 268.151C518.195 269.797 516.259 271.104 514.124 271.995C511.989 272.887 509.699 273.346 507.385 273.345H382.572C384.386 276.66 385.077 280.474 384.541 284.215C384.005 287.955 382.272 291.422 379.601 294.095C378.582 295.11 377.444 295.999 376.212 296.743H399.269C408.913 296.743 417.076 304.356 417.2 313.99C417.229 316.303 416.797 318.599 415.932 320.745C415.067 322.89 413.784 324.843 412.159 326.489C410.533 328.135 408.597 329.443 406.463 330.335C404.329 331.228 402.039 331.689 399.725 331.69H285.115C281.291 331.689 277.572 330.434 274.529 328.116C271.486 325.799 269.287 322.547 268.27 318.86C267.253 315.173 267.473 311.254 268.897 307.704C270.322 304.154 272.871 301.17 276.154 299.208H207.497C197.853 299.208 189.69 291.595 189.566 281.961C189.526 278.841 190.322 275.768 191.871 273.06C193.42 270.352 195.666 268.108 198.375 266.561C195.537 265.088 193.157 262.863 191.497 260.13C189.836 257.396 188.958 254.259 188.959 251.061V229.661C188.956 226.928 189.596 224.233 190.826 221.793C192.056 219.352 193.842 217.235 196.04 215.612H72.6603C63.0253 215.612 54.8723 208.018 54.7293 198.393C54.695 196.076 55.1218 193.776 55.9849 191.626C56.848 189.476 58.1302 187.518 59.7568 185.869C61.3834 184.219 63.322 182.909 65.4596 182.015C67.5973 181.121 69.8914 180.662 72.2083 180.663H80.9283C84.5088 180.663 87.9425 179.241 90.4743 176.709C93.006 174.177 94.4283 170.743 94.4283 167.163V167.153C94.4283 163.573 93.006 160.139 90.4743 157.607C87.9425 155.075 84.5088 153.653 80.9283 153.653H22.8833C18.2499 153.653 13.8062 151.812 10.5298 148.536C7.25348 145.26 5.41284 140.816 5.41284 136.182C5.41284 131.549 7.25348 127.105 10.5298 123.829C13.8062 120.553 18.2499 118.712 22.8833 118.712H106.808C111.442 118.713 115.886 116.874 119.163 113.598C122.44 110.323 124.282 105.879 124.283 101.246C124.285 96.6125 122.445 92.1684 119.17 88.8912C115.894 85.614 111.451 83.7722 106.817 83.771H82.8463C73.1923 83.771 65.0293 76.139 64.9253 66.486C64.9002 64.1755 65.3337 61.883 66.2006 59.7412C67.0675 57.5994 68.3508 55.6509 69.9759 54.0084C71.6011 52.3659 73.5359 51.0622 75.6684 50.1726C77.801 49.283 80.0887 48.8253 82.3993 48.826H241.799C251.187 48.826 259.246 56.05 259.699 65.437C259.853 68.5341 259.182 71.6165 257.753 74.369H463.332C467.966 74.369 472.409 76.2096 475.686 79.486C478.962 82.7623 480.803 87.206 480.803 91.8395C480.803 96.473 478.962 100.917 475.686 104.193C472.409 107.469 467.966 109.31 463.332 109.31H387.185C387.182 113.069 385.687 116.674 383.03 119.333C380.372 121.991 376.768 123.487 373.008 123.492H287.175C289.719 125.893 291.483 129.003 292.238 132.419C292.994 135.834 292.707 139.398 291.414 142.648C290.121 145.898 287.882 148.685 284.987 150.648C282.091 152.611 278.673 153.66 275.175 153.658H251.175C250.231 153.657 249.295 153.841 248.422 154.202C247.548 154.562 246.755 155.091 246.086 155.759C245.417 156.426 244.887 157.219 244.524 158.091C244.162 158.964 243.976 159.899 243.975 160.844V160.854C243.976 161.799 244.162 162.734 244.524 163.607C244.887 164.479 245.417 165.272 246.086 165.939C246.755 166.607 247.548 167.136 248.422 167.496C249.295 167.857 250.231 168.041 251.175 168.04H445.989C450.623 168.04 455.067 169.881 458.343 173.157C461.619 176.433 463.46 180.877 463.46 185.51C463.46 190.144 461.619 194.588 458.343 197.864C455.067 201.14 450.623 202.981 445.989 202.981H395.608C398.163 204.544 400.274 206.737 401.738 209.35C403.203 211.963 403.972 214.908 403.971 217.903V222.886C403.973 226.092 403.092 229.236 401.424 231.974C399.756 234.711 397.367 236.937 394.517 238.406H506.929C516.573 238.406 524.736 246.019 524.86 255.653" fill="#FBF8FF"/>
<path d="M507.385 273.345L507.386 272.345H507.385V273.345ZM382.572 273.345V272.345H380.885L381.695 273.825L382.572 273.345ZM379.601 294.095L380.307 294.804L380.309 294.802L379.601 294.095ZM376.212 296.743L375.695 295.887L372.623 297.743H376.212V296.743ZM417.2 313.99L418.2 313.978L418.2 313.977L417.2 313.99ZM399.725 331.69V332.69H399.726L399.725 331.69ZM285.115 331.69L285.115 332.69H285.115V331.69ZM276.154 299.208L276.667 300.066L279.778 298.208H276.154V299.208ZM189.566 281.961L190.566 281.948V281.948L189.566 281.961ZM198.375 266.561L198.871 267.429L200.466 266.519L198.836 265.673L198.375 266.561ZM188.959 251.061L189.959 251.061V251.061H188.959ZM188.959 229.661H189.959V229.66L188.959 229.661ZM196.04 215.612L196.634 216.416L199.078 214.612H196.04V215.612ZM54.7293 198.393L53.7295 198.408V198.408L54.7293 198.393ZM72.2083 180.663L72.2078 181.663H72.2083V180.663ZM94.4283 167.153H95.4283H94.4283ZM5.41284 136.182H4.41284H5.41284ZM22.8833 118.712V119.712V118.712ZM106.808 118.712L106.809 117.712H106.808V118.712ZM106.817 83.771L106.818 82.771H106.817V83.771ZM64.9253 66.486L65.9253 66.4752L65.9253 66.4751L64.9253 66.486ZM82.3993 48.826L82.399 49.826H82.3993V48.826ZM259.699 65.437L258.701 65.4852L258.701 65.4866L259.699 65.437ZM257.753 74.369L256.866 73.9084L256.108 75.369H257.753V74.369ZM463.332 74.369V73.369V74.369ZM387.185 109.31V108.31H386.186L386.185 109.309L387.185 109.31ZM373.008 123.492V124.492H373.01L373.008 123.492ZM287.175 123.492V122.492H284.66L286.489 124.219L287.175 123.492ZM275.175 153.658L275.176 152.658H275.175V153.658ZM251.175 153.658L251.174 154.658H251.175V153.658ZM243.975 160.844L242.975 160.844V160.844H243.975ZM243.975 160.854H242.975V160.854L243.975 160.854ZM251.175 168.04V167.04H251.174L251.175 168.04ZM445.989 168.04V167.04V168.04ZM445.989 202.981V203.981V202.981ZM395.608 202.981V201.981H392.058L395.086 203.834L395.608 202.981ZM403.971 217.903L402.971 217.903V217.903H403.971ZM403.971 222.886H402.971V222.886L403.971 222.886ZM394.517 238.406L394.059 237.517L394.517 239.406V238.406ZM524.86 255.652L523.86 255.665C523.888 257.846 523.482 260.01 522.667 262.033L523.594 262.407L524.522 262.781C525.436 260.512 525.891 258.085 525.86 255.639L524.86 255.652ZM523.594 262.407L522.667 262.033C521.851 264.056 520.642 265.897 519.109 267.448L519.821 268.151L520.532 268.854C522.251 267.114 523.607 265.049 524.522 262.781L523.594 262.407ZM519.821 268.151L519.109 267.448C517.577 269 515.751 270.232 513.739 271.073L514.124 271.995L514.51 272.918C516.766 271.975 518.814 270.594 520.532 268.854L519.821 268.151ZM514.124 271.995L513.739 271.073C511.726 271.913 509.567 272.346 507.386 272.345L507.385 273.345L507.385 274.345C509.831 274.346 512.253 273.861 514.51 272.918L514.124 271.995ZM507.385 273.345V272.345H382.572V273.345V274.345H507.385V273.345ZM382.572 273.345L381.695 273.825C383.405 276.951 384.056 280.546 383.551 284.073L384.541 284.215L385.531 284.356C386.097 280.402 385.367 276.37 383.45 272.865L382.572 273.345ZM384.541 284.215L383.551 284.073C383.046 287.6 381.412 290.868 378.894 293.388L379.601 294.095L380.309 294.802C383.132 291.976 384.965 288.311 385.531 284.356L384.541 284.215ZM379.601 294.095L378.896 293.386C377.933 294.345 376.858 295.184 375.695 295.887L376.212 296.743L376.729 297.599C378.029 296.814 379.23 295.875 380.307 294.804L379.601 294.095ZM376.212 296.743V297.743H399.269V296.743V295.743H376.212V296.743ZM399.269 296.743V297.743C408.4 297.743 416.084 304.949 416.2 314.003L417.2 313.99L418.2 313.977C418.069 303.763 409.427 295.743 399.269 295.743V296.743ZM417.2 313.99L416.2 314.002C416.227 316.183 415.821 318.348 415.005 320.371L415.932 320.745L416.859 321.119C417.774 318.851 418.23 316.423 418.2 313.978L417.2 313.99ZM415.932 320.745L415.005 320.371C414.189 322.393 412.979 324.234 411.447 325.786L412.159 326.489L412.87 327.191C414.589 325.451 415.944 323.387 416.859 321.119L415.932 320.745ZM412.159 326.489L411.447 325.786C409.915 327.338 408.089 328.571 406.077 329.413L406.463 330.335L406.849 331.258C409.105 330.314 411.152 328.932 412.87 327.191L412.159 326.489ZM406.463 330.335L406.077 329.413C404.065 330.255 401.906 330.689 399.725 330.69L399.725 331.69L399.726 332.69C402.172 332.688 404.593 332.202 406.849 331.258L406.463 330.335ZM399.725 331.69V330.69H285.115V331.69V332.69H399.725V331.69ZM285.115 331.69L285.116 330.69C281.51 330.689 278.003 329.506 275.135 327.321L274.529 328.116L273.923 328.912C277.14 331.362 281.071 332.689 285.115 332.69L285.115 331.69ZM274.529 328.116L275.135 327.321C272.266 325.136 270.193 322.07 269.234 318.594L268.27 318.86L267.306 319.126C268.382 323.024 270.706 326.462 273.923 328.912L274.529 328.116ZM268.27 318.86L269.234 318.594C268.275 315.118 268.483 311.423 269.826 308.077L268.897 307.704L267.969 307.332C266.464 311.085 266.231 315.228 267.306 319.126L268.27 318.86ZM268.897 307.704L269.826 308.077C271.168 304.73 273.572 301.916 276.667 300.066L276.154 299.208L275.641 298.35C272.17 300.424 269.475 303.579 267.969 307.332L268.897 307.704ZM276.154 299.208V298.208H207.497V299.208V300.208H276.154V299.208ZM207.497 299.208V298.208C198.367 298.208 190.683 291.002 190.566 281.948L189.566 281.961L188.566 281.974C188.698 292.188 197.34 300.208 207.497 300.208V299.208ZM189.566 281.961L190.566 281.948C190.528 279.007 191.279 276.11 192.739 273.556L191.871 273.06L191.003 272.563C189.365 275.426 188.524 278.676 188.566 281.974L189.566 281.961ZM191.871 273.06L192.739 273.556C194.199 271.003 196.317 268.888 198.871 267.429L198.375 266.561L197.88 265.693C195.015 267.328 192.641 269.7 191.003 272.563L191.871 273.06ZM198.375 266.561L198.836 265.673C196.16 264.285 193.917 262.187 192.351 259.611L191.497 260.13L190.642 260.649C192.398 263.539 194.913 265.891 197.915 267.449L198.375 266.561ZM191.497 260.13L192.351 259.611C190.786 257.034 189.958 254.076 189.959 251.061L188.959 251.061L187.959 251.061C187.958 254.442 188.886 257.759 190.642 260.649L191.497 260.13ZM188.959 251.061H189.959V229.661H188.959H187.959V251.061H188.959ZM188.959 229.661L189.959 229.66C189.957 227.084 190.559 224.543 191.719 222.243L190.826 221.793L189.933 221.343C188.632 223.923 187.956 226.773 187.959 229.662L188.959 229.661ZM190.826 221.793L191.719 222.243C192.878 219.942 194.562 217.947 196.634 216.416L196.04 215.612L195.446 214.808C193.122 216.524 191.233 218.762 189.933 221.343L190.826 221.793ZM196.04 215.612V214.612H72.6603V215.612V216.612H196.04V215.612ZM72.6603 215.612V214.612C63.5387 214.612 55.8636 207.424 55.7292 198.378L54.7293 198.393L53.7295 198.408C53.8811 208.612 62.512 216.612 72.6603 216.612V215.612ZM54.7293 198.393L55.7292 198.378C55.6968 196.194 56.0992 194.025 56.9129 191.998L55.9849 191.626L55.0569 191.253C54.1444 193.526 53.6931 195.959 53.7295 198.408L54.7293 198.393ZM55.9849 191.626L56.9129 191.998C57.7266 189.971 58.9354 188.126 60.4689 186.571L59.7568 185.869L59.0447 185.166C57.325 186.911 55.9694 188.98 55.0569 191.253L55.9849 191.626ZM59.7568 185.869L60.4689 186.571C62.0024 185.015 63.83 183.78 65.8454 182.938L65.4596 182.015L65.0739 181.092C62.8139 182.037 60.7644 183.422 59.0447 185.166L59.7568 185.869ZM65.4596 182.015L65.8454 182.938C67.8607 182.095 70.0234 181.662 72.2078 181.663L72.2083 180.663L72.2089 179.663C69.7593 179.662 67.334 180.147 65.0739 181.092L65.4596 182.015ZM72.2083 180.663V181.663H80.9283V180.663V179.663H72.2083V180.663ZM80.9283 180.663V181.663C84.774 181.663 88.4621 180.135 91.1814 177.416L90.4743 176.709L89.7672 176.002C87.423 178.346 84.2435 179.663 80.9283 179.663V180.663ZM90.4743 176.709L91.1814 177.416C93.9007 174.697 95.4283 171.009 95.4283 167.163H94.4283H93.4283C93.4283 170.478 92.1114 173.658 89.7672 176.002L90.4743 176.709ZM94.4283 167.163H95.4283V167.153H94.4283H93.4283V167.163H94.4283ZM94.4283 167.153H95.4283C95.4283 163.307 93.9007 159.619 91.1814 156.9L90.4743 157.607L89.7672 158.314C92.1114 160.658 93.4283 163.838 93.4283 167.153H94.4283ZM90.4743 157.607L91.1814 156.9C88.4621 154.181 84.774 152.653 80.9283 152.653V153.653V154.653C84.2435 154.653 87.423 155.97 89.7672 158.314L90.4743 157.607ZM80.9283 153.653V152.653H22.8833V153.653V154.653H80.9283V153.653ZM22.8833 153.653V152.653C18.5151 152.653 14.3258 150.918 11.2369 147.829L10.5298 148.536L9.82273 149.243C13.2866 152.707 17.9847 154.653 22.8833 154.653V153.653ZM10.5298 148.536L11.2369 147.829C8.14812 144.74 6.41284 140.551 6.41284 136.182H5.41284H4.41284C4.41284 141.081 6.35884 145.779 9.82273 149.243L10.5298 148.536ZM5.41284 136.182H6.41284C6.41284 131.814 8.14812 127.625 11.2369 124.536L10.5298 123.829L9.82273 123.122C6.35884 126.586 4.41284 131.284 4.41284 136.182H5.41284ZM10.5298 123.829L11.2369 124.536C14.3258 121.447 18.5151 119.712 22.8833 119.712V118.712V117.712C17.9847 117.712 13.2866 119.658 9.82273 123.122L10.5298 123.829ZM22.8833 118.712V119.712H106.808V118.712V117.712H22.8833V118.712ZM106.808 118.712L106.808 119.712C111.707 119.713 116.405 117.768 119.87 114.305L119.163 113.598L118.456 112.891C115.367 115.979 111.177 117.713 106.809 117.712L106.808 118.712ZM119.163 113.598L119.87 114.305C123.335 110.842 125.282 106.145 125.283 101.246L124.283 101.246L123.283 101.246C123.282 105.614 121.546 109.803 118.456 112.891L119.163 113.598ZM124.283 101.246L125.283 101.246C125.285 96.3476 123.34 91.649 119.877 88.1842L119.17 88.8912L118.462 89.5981C121.55 92.6877 123.284 96.8775 123.283 101.246L124.283 101.246ZM119.17 88.8912L119.877 88.1842C116.414 84.7195 111.716 82.7723 106.818 82.771L106.817 83.771L106.817 84.771C111.185 84.7721 115.374 86.5085 118.462 89.5981L119.17 88.8912ZM106.817 83.771V82.771H82.8463V83.771V84.771H106.817V83.771ZM82.8463 83.771V82.771C73.7073 82.771 66.023 75.5477 65.9253 66.4752L64.9253 66.486L63.9254 66.4968C64.0357 76.7303 72.6774 84.771 82.8463 84.771V83.771ZM64.9253 66.486L65.9253 66.4751C65.9016 64.2969 66.3102 62.1356 67.1276 60.1164L66.2006 59.7412L65.2737 59.366C64.3571 61.6304 63.8988 64.0541 63.9254 66.4969L64.9253 66.486ZM66.2006 59.7412L67.1276 60.1164C67.9449 58.0972 69.1546 56.2602 70.6868 54.7118L69.9759 54.0084L69.2651 53.3051C67.5469 55.0415 66.1902 57.1016 65.2737 59.366L66.2006 59.7412ZM69.9759 54.0084L70.6868 54.7118C72.2189 53.1633 74.043 51.9342 76.0534 51.0955L75.6684 50.1726L75.2835 49.2497C73.0289 50.1902 70.9833 51.5686 69.2651 53.3051L69.9759 54.0084ZM75.6684 50.1726L76.0534 51.0955C78.0639 50.2569 80.2207 49.8254 82.399 49.826L82.3993 48.826L82.3996 47.826C79.9568 47.8253 77.538 48.3092 75.2835 49.2497L75.6684 50.1726ZM82.3993 48.826V49.826H241.799V48.826V47.826H82.3993V48.826ZM241.799 48.826V49.826C250.688 49.826 258.275 56.6649 258.701 65.4852L259.699 65.437L260.698 65.3888C260.218 55.4351 251.686 47.826 241.799 47.826V48.826ZM259.699 65.437L258.701 65.4866C258.846 68.4068 258.212 71.3132 256.866 73.9084L257.753 74.369L258.641 74.8296C260.151 71.9199 260.861 68.6614 260.698 65.3874L259.699 65.437ZM257.753 74.369V75.369H463.332V74.369V73.369H257.753V74.369ZM463.332 74.369V75.369C467.701 75.369 471.89 77.1043 474.979 80.1931L475.686 79.486L476.393 78.7789C472.929 75.315 468.231 73.369 463.332 73.369V74.369ZM475.686 79.486L474.979 80.1931C478.068 83.2819 479.803 87.4712 479.803 91.8395H480.803H481.803C481.803 86.9408 479.857 82.2428 476.393 78.7789L475.686 79.486ZM480.803 91.8395H479.803C479.803 96.2077 478.068 100.397 474.979 103.486L475.686 104.193L476.393 104.9C479.857 101.436 481.803 96.7382 481.803 91.8395H480.803ZM475.686 104.193L474.979 103.486C471.89 106.575 467.701 108.31 463.332 108.31V109.31V110.31C468.231 110.31 472.929 108.364 476.393 104.9L475.686 104.193ZM463.332 109.31V108.31H387.185V109.31V110.31H463.332V109.31ZM387.185 109.31L386.185 109.309C386.182 112.804 384.793 116.154 382.322 118.626L383.03 119.333L383.737 120.04C386.582 117.194 388.182 113.335 388.185 109.311L387.185 109.31ZM383.03 119.333L382.322 118.626C379.852 121.097 376.502 122.488 373.007 122.492L373.008 123.492L373.01 124.492C377.034 124.487 380.892 122.886 383.737 120.04L383.03 119.333ZM373.008 123.492V122.492H287.175V123.492V124.492H373.008V123.492ZM287.175 123.492L286.489 124.219C288.887 126.483 290.55 129.415 291.262 132.635L292.238 132.419L293.215 132.203C292.416 128.592 290.551 125.304 287.862 122.765L287.175 123.492ZM292.238 132.419L291.262 132.635C291.974 135.854 291.704 139.214 290.485 142.278L291.414 142.648L292.343 143.018C293.71 139.581 294.014 135.813 293.215 132.203L292.238 132.419ZM291.414 142.648L290.485 142.278C289.266 145.342 287.155 147.97 284.425 149.821L284.987 150.648L285.548 151.476C288.609 149.401 290.976 146.454 292.343 143.018L291.414 142.648ZM284.987 150.648L284.425 149.821C281.696 151.671 278.474 152.66 275.176 152.658L275.175 153.658L275.175 154.658C278.873 154.66 282.487 153.552 285.548 151.476L284.987 150.648ZM275.175 153.658V152.658H251.175V153.658V154.658H275.175V153.658ZM251.175 153.658L251.177 152.658C250.101 152.656 249.035 152.867 248.04 153.277L248.422 154.202L248.803 155.126C249.555 154.816 250.36 154.657 251.174 154.658L251.175 153.658ZM248.422 154.202L248.04 153.277C247.045 153.688 246.141 154.291 245.379 155.051L246.086 155.759L246.792 156.466C247.368 155.892 248.051 155.436 248.803 155.126L248.422 154.202ZM246.086 155.759L245.379 155.051C244.618 155.811 244.013 156.714 243.601 157.708L244.524 158.091L245.448 158.475C245.76 157.723 246.217 157.041 246.792 156.466L246.086 155.759ZM244.524 158.091L243.601 157.708C243.188 158.702 242.976 159.767 242.975 160.844L243.975 160.844L244.975 160.844C244.976 160.031 245.136 159.226 245.448 158.475L244.524 158.091ZM243.975 160.844H242.975V160.854H243.975H244.975V160.844H243.975ZM243.975 160.854L242.975 160.854C242.976 161.931 243.188 162.996 243.601 163.99L244.524 163.607L245.448 163.223C245.136 162.472 244.976 161.667 244.975 160.854L243.975 160.854ZM244.524 163.607L243.601 163.99C244.013 164.984 244.618 165.887 245.379 166.647L246.086 165.939L246.792 165.232C246.217 164.657 245.76 163.975 245.448 163.223L244.524 163.607ZM246.086 165.939L245.379 166.647C246.141 167.407 247.045 168.01 248.04 168.421L248.422 167.496L248.803 166.572C248.051 166.262 247.368 165.806 246.792 165.232L246.086 165.939ZM248.422 167.496L248.04 168.421C249.035 168.831 250.101 169.042 251.177 169.04L251.175 168.04L251.174 167.04C250.36 167.041 249.555 166.882 248.803 166.572L248.422 167.496ZM251.175 168.04V169.04H445.989V168.04V167.04H251.175V168.04ZM445.989 168.04V169.04C450.358 169.04 454.547 170.775 457.636 173.864L458.343 173.157L459.05 172.45C455.586 168.986 450.888 167.04 445.989 167.04V168.04ZM458.343 173.157L457.636 173.864C460.725 176.953 462.46 181.142 462.46 185.51H463.46H464.46C464.46 180.612 462.514 175.914 459.05 172.45L458.343 173.157ZM463.46 185.51H462.46C462.46 189.879 460.725 194.068 457.636 197.157L458.343 197.864L459.05 198.571C462.514 195.107 464.46 190.409 464.46 185.51H463.46ZM458.343 197.864L457.636 197.157C454.547 200.246 450.358 201.981 445.989 201.981V202.981V203.981C450.888 203.981 455.586 202.035 459.05 198.571L458.343 197.864ZM445.989 202.981V201.981H395.608V202.981V203.981H445.989V202.981ZM395.608 202.981L395.086 203.834C397.495 205.308 399.485 207.375 400.866 209.839L401.738 209.35L402.611 208.861C401.063 206.099 398.831 203.781 396.13 202.128L395.608 202.981ZM401.738 209.35L400.866 209.839C402.247 212.302 402.972 215.079 402.971 217.903L403.971 217.903L404.971 217.903C404.972 214.737 404.159 211.623 402.611 208.861L401.738 209.35ZM403.971 217.903H402.971V222.886H403.971H404.971V217.903H403.971ZM403.971 222.886L402.971 222.886C402.973 225.908 402.142 228.873 400.57 231.453L401.424 231.974L402.278 232.494C404.041 229.599 404.973 226.275 404.971 222.886L403.971 222.886ZM401.424 231.974L400.57 231.453C398.998 234.034 396.745 236.132 394.059 237.517L394.517 238.406L394.976 239.295C397.988 237.742 400.515 235.388 402.278 232.494L401.424 231.974ZM394.517 238.406V239.406H506.929V238.406V237.406H394.517V238.406ZM506.929 238.406V239.406C516.06 239.406 523.744 246.612 523.86 255.666L524.86 255.653L525.86 255.64C525.729 245.426 517.087 237.406 506.929 237.406V238.406Z" fill="black" mask="url(#path-1-inside-1_1_438)"/>
<path d="M489.926 149.072V170.588" stroke="black" stroke-width="2" stroke-miterlimit="10" stroke-linecap="round"/>
<path d="M479.168 159.83H500.684" stroke="black" stroke-width="2" stroke-miterlimit="10" stroke-linecap="round"/>
<path d="M140.525 7.272V26.276" stroke="black" stroke-width="2" stroke-miterlimit="10" stroke-linecap="round"/>
<path d="M131.023 16.774H150.027" stroke="black" stroke-width="2" stroke-miterlimit="10" stroke-linecap="round"/>
<path d="M515.214 37.517C515.214 40.0178 514.472 42.4624 513.083 44.5417C511.694 46.621 509.719 48.2416 507.408 49.1986C505.098 50.1556 502.556 50.4059 500.103 49.918C497.65 49.43 495.397 48.2257 493.629 46.4573C491.861 44.6889 490.657 42.4359 490.169 39.9831C489.681 37.5303 489.932 34.988 490.889 32.6776C491.846 30.3673 493.467 28.3926 495.546 27.0034C497.626 25.6142 500.07 24.8728 502.571 24.873C504.231 24.873 505.876 25.2 507.41 25.8355C508.944 26.4709 510.337 27.4023 511.511 28.5764C512.685 29.7505 513.617 31.1444 514.252 32.6784C514.887 34.2124 515.214 35.8566 515.214 37.517Z" stroke="black" stroke-width="2" stroke-miterlimit="10"/>
<path d="M26.288 243.978C26.289 246.479 25.5483 248.924 24.1595 251.004C22.7707 253.084 20.7962 254.705 18.4859 255.663C16.1755 256.621 13.633 256.872 11.18 256.385C8.72693 255.897 6.47352 254.693 4.70476 252.925C2.936 251.157 1.73137 248.904 1.2432 246.451C0.755037 243.998 1.00528 241.455 1.96228 239.145C2.91928 236.834 4.54005 234.859 6.61958 233.47C8.69912 232.08 11.144 231.339 13.645 231.339C16.9974 231.339 20.2124 232.671 22.5833 235.041C24.9541 237.411 26.2867 240.626 26.288 243.978Z" stroke="black" stroke-width="2" stroke-miterlimit="10"/>
<path d="M537.959 217.542C537.959 218.752 537.6 219.935 536.927 220.942C536.255 221.948 535.299 222.732 534.181 223.195C533.062 223.658 531.832 223.78 530.645 223.543C529.458 223.307 528.367 222.724 527.512 221.868C526.656 221.013 526.073 219.922 525.837 218.735C525.6 217.548 525.722 216.318 526.185 215.199C526.648 214.081 527.432 213.125 528.438 212.453C529.445 211.78 530.628 211.421 531.838 211.421C533.461 211.421 535.018 212.066 536.166 213.214C537.314 214.362 537.959 215.919 537.959 217.542Z" stroke="black" stroke-width="2" stroke-miterlimit="10"/>
<path d="M70.526 192.927C70.5258 194.137 70.1667 195.32 69.4942 196.327C68.8216 197.333 67.8658 198.117 66.7476 198.58C65.6293 199.043 64.3989 199.165 63.2118 198.928C62.0247 198.692 60.9344 198.109 60.0785 197.253C59.2227 196.398 58.6398 195.307 58.4037 194.12C58.1675 192.933 58.2886 191.703 58.7517 190.584C59.2148 189.466 59.999 188.51 61.0053 187.838C62.0116 187.165 63.1947 186.806 64.405 186.806C66.0284 186.806 67.5853 187.451 68.7332 188.599C69.8811 189.747 70.526 191.304 70.526 192.927Z" stroke="black" stroke-width="2" stroke-miterlimit="10"/>
<path d="M276.294 359.911C314.031 359.911 348.19 361.096 372.909 363.01C385.27 363.967 395.259 365.105 402.15 366.367C405.599 366.999 408.25 367.657 410.028 368.33C410.92 368.667 411.562 368.997 411.973 369.31C412.395 369.632 412.482 369.864 412.482 369.995C412.482 370.126 412.395 370.358 411.973 370.68C411.562 370.993 410.92 371.323 410.028 371.66C408.25 372.333 405.599 372.991 402.15 373.623C395.259 374.884 385.27 376.023 372.909 376.98C348.19 378.894 314.031 380.079 276.294 380.079C238.558 380.079 204.398 378.894 179.679 376.98C167.318 376.023 157.329 374.884 150.438 373.623C146.988 372.991 144.338 372.333 142.56 371.66C141.668 371.323 141.025 370.993 140.615 370.68C140.193 370.358 140.106 370.126 140.106 369.995C140.106 369.864 140.193 369.632 140.615 369.31C141.025 368.997 141.668 368.667 142.56 368.33C144.338 367.657 146.988 366.999 150.438 366.367C157.329 365.105 167.318 363.967 179.679 363.01C204.398 361.096 238.558 359.911 276.294 359.911Z" fill="#EDE2FD" stroke="black"/>
<mask id="path-12-inside-2_1_438" fill="white">
<path d="M259.32 1.777L259.338 0H258.604L258.079 0.514L259.32 1.777ZM331.484 2.551L332.75 1.31L332.237 0.785L331.501 0.777L331.484 2.551ZM207.745 52.258L206.504 50.99L205.979 51.504L205.971 52.239L207.745 52.258ZM206.971 124.422L205.194 124.4L205.186 125.135L205.7 125.66L206.971 124.422ZM257.452 176L256.184 177.241L256.698 177.766L257.433 177.774L257.452 176ZM329.616 176.774L329.596 178.548L330.33 178.556L330.855 178.042L329.616 176.774ZM381.194 126.289L382.434 127.557L382.959 127.043L382.968 126.308L381.194 126.289ZM381.967 54.125L383.741 54.144L383.748 53.409L383.235 52.884L381.967 54.125ZM324.164 15.009L325.418 13.755L324.898 13.235H324.164V15.009ZM263.158 15.009V13.235H262.423L261.903 13.755L263.158 15.009ZM367.302 58.146H369.076V57.411L368.556 56.891L367.302 58.146ZM367.302 119.152L368.556 120.406L369.076 119.886V119.151L367.302 119.152ZM324.164 162.29V164.064H324.898L325.418 163.544L324.164 162.29ZM263.158 162.29L261.904 163.544L262.424 164.064H263.159L263.158 162.29ZM220.021 119.152H218.247V119.887L218.766 120.407L220.021 119.152ZM220.021 58.146L218.766 56.891L218.247 57.411V58.146H220.021ZM259.301 3.546L331.465 4.32L331.502 0.772L259.338 0L259.301 3.546ZM208.986 53.526L260.561 3.046L258.079 0.51L206.504 50.99L208.986 53.526ZM208.745 124.441L209.519 52.277L205.971 52.239L205.194 124.4L208.745 124.441ZM258.719 174.756L208.239 123.181L205.704 125.663L256.184 177.238L258.719 174.756ZM329.635 174.997L257.47 174.223L257.432 177.771L329.596 178.545L329.635 174.997ZM379.948 125.023L328.374 175.5L330.856 178.036L382.43 127.555L379.948 125.023ZM380.194 54.107L379.421 126.271L382.969 126.309L383.742 54.145L380.194 54.107ZM330.215 3.792L380.694 55.366L383.231 52.884L332.75 1.31L330.215 3.792ZM324.164 13.235H263.158L263.159 16.783H324.164V13.235ZM368.556 56.891L325.419 13.754L322.911 16.263L366.048 59.4L368.556 56.891ZM369.076 119.151V58.146H365.528V119.152L369.076 119.151ZM325.419 163.544L368.556 120.406L366.048 117.897L322.911 161.035L325.419 163.544ZM263.159 164.064H324.164V160.516H263.159V164.064ZM218.766 120.407L261.904 163.544L264.413 161.036L221.275 117.9L218.766 120.407ZM218.247 58.146V119.152L221.794 119.153V58.146H218.247ZM261.904 13.754L218.766 56.891L221.275 59.4L264.413 16.262L261.904 13.754Z"/>
</mask>
<path d="M259.32 1.777L259.338 0H258.604L258.079 0.514L259.32 1.777ZM331.484 2.551L332.75 1.31L332.237 0.785L331.501 0.777L331.484 2.551ZM207.745 52.258L206.504 50.99L205.979 51.504L205.971 52.239L207.745 52.258ZM206.971 124.422L205.194 124.4L205.186 125.135L205.7 125.66L206.971 124.422ZM257.452 176L256.184 177.241L256.698 177.766L257.433 177.774L257.452 176ZM329.616 176.774L329.596 178.548L330.33 178.556L330.855 178.042L329.616 176.774ZM381.194 126.289L382.434 127.557L382.959 127.043L382.968 126.308L381.194 126.289ZM381.967 54.125L383.741 54.144L383.748 53.409L383.235 52.884L381.967 54.125ZM324.164 15.009L325.418 13.755L324.898 13.235H324.164V15.009ZM263.158 15.009V13.235H262.423L261.903 13.755L263.158 15.009ZM367.302 58.146H369.076V57.411L368.556 56.891L367.302 58.146ZM367.302 119.152L368.556 120.406L369.076 119.886V119.151L367.302 119.152ZM324.164 162.29V164.064H324.898L325.418 163.544L324.164 162.29ZM263.158 162.29L261.904 163.544L262.424 164.064H263.159L263.158 162.29ZM220.021 119.152H218.247V119.887L218.766 120.407L220.021 119.152ZM220.021 58.146L218.766 56.891L218.247 57.411V58.146H220.021ZM259.301 3.546L331.465 4.32L331.502 0.772L259.338 0L259.301 3.546ZM208.986 53.526L260.561 3.046L258.079 0.51L206.504 50.99L208.986 53.526ZM208.745 124.441L209.519 52.277L205.971 52.239L205.194 124.4L208.745 124.441ZM258.719 174.756L208.239 123.181L205.704 125.663L256.184 177.238L258.719 174.756ZM329.635 174.997L257.47 174.223L257.432 177.771L329.596 178.545L329.635 174.997ZM379.948 125.023L328.374 175.5L330.856 178.036L382.43 127.555L379.948 125.023ZM380.194 54.107L379.421 126.271L382.969 126.309L383.742 54.145L380.194 54.107ZM330.215 3.792L380.694 55.366L383.231 52.884L332.75 1.31L330.215 3.792ZM324.164 13.235H263.158L263.159 16.783H324.164V13.235ZM368.556 56.891L325.419 13.754L322.911 16.263L366.048 59.4L368.556 56.891ZM369.076 119.151V58.146H365.528V119.152L369.076 119.151ZM325.419 163.544L368.556 120.406L366.048 117.897L322.911 161.035L325.419 163.544ZM263.159 164.064H324.164V160.516H263.159V164.064ZM218.766 120.407L261.904 163.544L264.413 161.036L221.275 117.9L218.766 120.407ZM218.247 58.146V119.152L221.794 119.153V58.146H218.247ZM261.904 13.754L218.766 56.891L221.275 59.4L264.413 16.262L261.904 13.754Z" fill="#35008B"/>
<path d="M327.61 9.058L327.963 8.70444L327.443 8.18445L327.09 8.538L326.736 8.89155L327.256 9.41155L327.61 9.058ZM373.71 122.858L374.172 123.05L374.692 121.796L374.23 121.604L373.768 121.412L373.248 122.666L373.71 122.858ZM326.356 169.476L326.547 169.938L327.801 169.418L327.61 168.956L327.418 168.494L326.164 169.014L326.356 169.476ZM259.909 168.956L259.717 169.418L260.971 169.938L261.163 169.476L261.354 169.014L260.1 168.494L259.909 168.956ZM259.32 1.777L258.607 2.47787L260.295 4.19665L260.32 1.78713L259.32 1.777ZM259.338 0L259.349 -1H259.338V0ZM258.604 0V-1H258.196L257.904 -0.714554L258.604 0ZM258.079 0.514L257.379 -0.200554L256.663 0.500288L257.366 1.21487L258.079 0.514ZM331.484 2.551L330.484 2.54141L330.461 4.9542L332.184 3.26512L331.484 2.551ZM332.237 0.785L332.952 0.0861142L332.662 -0.210434L332.248 -0.214941L332.237 0.785ZM331.501 0.777L331.512 -0.222941L330.511 -0.233824L330.501 0.76741L331.501 0.777ZM207.745 52.258L207.734 53.2579L210.148 53.2838L208.46 51.5585L207.745 52.258ZM206.504 50.99L205.804 50.2753L205.804 50.2754L206.504 50.99ZM205.979 51.504L205.279 50.7894L204.983 51.0791L204.979 51.4931L205.979 51.504ZM205.971 52.239L204.971 52.2281L204.971 52.2282L205.971 52.239ZM206.971 124.422L207.669 125.138L209.4 123.452L206.983 123.422L206.971 124.422ZM205.186 125.135L204.186 125.124L204.181 125.538L204.471 125.835L205.186 125.135ZM205.7 125.66L204.985 126.36L205.683 127.072L206.398 126.376L205.7 125.66ZM257.452 176L258.452 176.011L258.478 173.597L256.752 175.285L257.452 176ZM256.184 177.241L255.484 176.526L254.77 177.226L255.469 177.941L256.184 177.241ZM256.698 177.766L255.983 178.466L256.273 178.761L256.687 178.766L256.698 177.766ZM257.433 177.774L257.422 178.774L258.422 178.785L258.433 177.785L257.433 177.774ZM329.616 176.774L330.331 176.075L328.643 174.348L328.616 176.763L329.616 176.774ZM329.596 178.548L328.596 178.537L328.585 179.537L329.585 179.548L329.596 178.548ZM330.33 178.556L330.319 179.556L330.733 179.56L331.029 179.271L330.33 178.556ZM330.855 178.042L331.554 178.757L332.268 178.058L331.57 177.343L330.855 178.042ZM381.194 126.289L381.205 125.289L378.792 125.263L380.479 126.988L381.194 126.289ZM382.434 127.557L381.719 128.256L382.419 128.972L383.133 128.272L382.434 127.557ZM382.959 127.043L383.658 127.758L383.954 127.468L383.959 127.055L382.959 127.043ZM382.968 126.308L383.968 126.32L383.98 125.319L382.979 125.308L382.968 126.308ZM381.967 54.125L381.267 53.4103L379.542 55.0991L381.956 55.1249L381.967 54.125ZM383.741 54.144L383.73 55.1439L384.731 55.1547L384.741 54.1535L383.741 54.144ZM383.748 53.409L384.748 53.4185L384.752 53.0055L384.463 52.7101L383.748 53.409ZM383.235 52.884L383.95 52.1851L383.251 51.4693L382.535 52.1693L383.235 52.884ZM324.164 15.009H323.164V17.4232L324.871 15.7161L324.164 15.009ZM325.418 13.755L326.125 14.4621L326.832 13.755L326.125 13.0479L325.418 13.755ZM324.898 13.235L325.605 12.5279L325.312 12.235H324.898V13.235ZM263.158 15.009L262.451 15.7164L264.158 17.4219V15.009H263.158ZM262.423 13.235V12.235H262.009L261.716 12.5279L262.423 13.235ZM261.903 13.755L261.196 13.0479L260.488 13.7553L261.196 14.4624L261.903 13.755ZM367.302 58.146L366.595 57.4392L364.889 59.146H367.302V58.146ZM369.076 57.411H370.076V56.9968L369.783 56.7039L369.076 57.411ZM367.302 119.152L367.301 118.152L364.889 118.153L366.595 119.859L367.302 119.152ZM369.076 119.886L369.783 120.593L370.076 120.3V119.886H369.076ZM324.164 162.29L324.871 161.583L323.164 159.876V162.29H324.164ZM324.898 164.064V165.064H325.312L325.605 164.771L324.898 164.064ZM325.418 163.544L326.125 164.251L326.832 163.544L326.125 162.837L325.418 163.544ZM263.158 162.29L264.158 162.289L264.157 159.877L262.451 161.583L263.158 162.29ZM261.904 163.544L261.197 164.251L261.197 164.251L261.904 163.544ZM262.424 164.064L261.717 164.771L262.01 165.064H262.424V164.064ZM220.021 119.152L220.728 119.859L222.435 118.152H220.021V119.152ZM218.247 119.887H217.247V120.301L217.539 120.593L218.247 119.887ZM218.766 120.407L218.058 121.113L218.059 121.114L218.766 120.407ZM220.021 58.146V59.146H222.435L220.728 57.4389L220.021 58.146ZM218.766 56.891L218.059 56.1839L218.058 56.1846L218.766 56.891ZM218.247 57.411L217.539 56.7046L217.247 56.9974V57.411H218.247ZM259.301 3.546L258.301 3.53557L258.291 4.53522L259.29 4.54594L259.301 3.546ZM331.465 4.32L331.454 5.31994L332.454 5.33067L332.465 4.33043L331.465 4.32ZM331.502 0.772L332.502 0.782429L332.512 -0.217248L331.513 -0.227943L331.502 0.772ZM208.986 53.526L208.271 54.2255L208.971 54.9402L209.685 54.2407L208.986 53.526ZM260.561 3.046L261.26 3.76065L261.975 3.0612L261.276 2.34654L260.561 3.046ZM258.079 0.51L258.794 -0.189456L258.094 -0.904155L257.379 -0.204653L258.079 0.51ZM208.745 124.441L208.733 125.441L209.734 125.452L209.745 124.452L208.745 124.441ZM209.519 52.277L210.519 52.2877L210.53 51.2878L209.53 51.2771L209.519 52.277ZM258.719 174.756L259.419 175.471L260.133 174.771L259.434 174.057L258.719 174.756ZM208.239 123.181L208.954 122.482L208.254 121.767L207.539 122.466L208.239 123.181ZM205.704 125.663L205.004 124.948L204.29 125.648L204.989 126.362L205.704 125.663ZM256.184 177.238L255.469 177.937L256.169 178.652L256.884 177.953L256.184 177.238ZM329.635 174.997L330.635 175.008L330.646 174.008L329.646 173.997L329.635 174.997ZM257.47 174.223L257.481 173.223L256.481 173.212L256.47 174.212L257.47 174.223ZM257.432 177.771L256.432 177.76L256.421 178.76L257.421 178.771L257.432 177.771ZM329.596 178.545L329.585 179.545L330.585 179.556L330.596 178.556L329.596 178.545ZM379.948 125.023L380.662 124.323L379.963 123.609L379.248 124.308L379.948 125.023ZM328.374 175.5L327.674 174.785L326.96 175.485L327.659 176.199L328.374 175.5ZM330.856 178.036L330.141 178.735L330.841 179.45L331.555 178.751L330.856 178.036ZM382.43 127.555L383.129 128.27L383.845 127.57L383.144 126.855L382.43 127.555ZM380.194 54.107L380.205 53.1071L379.205 53.0963L379.194 54.0963L380.194 54.107ZM379.421 126.271L378.421 126.26L378.41 127.26L379.41 127.271L379.421 126.271ZM382.969 126.309L382.958 127.309L383.958 127.32L383.969 126.32L382.969 126.309ZM383.742 54.145L384.742 54.1557L384.753 53.1558L383.753 53.1451L383.742 54.145ZM330.215 3.792L329.515 3.07746L328.801 3.77694L329.5 4.49148L330.215 3.792ZM380.694 55.366L379.979 56.0655L380.679 56.78L381.393 56.0808L380.694 55.366ZM383.231 52.884L383.93 53.5988L384.645 52.8993L383.946 52.1845L383.231 52.884ZM263.159 16.783L262.159 16.7833L262.159 17.783H263.159V16.783ZM324.164 16.783V17.783H325.164V16.783H324.164ZM325.419 13.754L326.126 13.0469L325.419 12.3396L324.712 13.047L325.419 13.754ZM322.911 16.263L322.204 15.556L321.497 16.2631L322.204 16.9701L322.911 16.263ZM366.048 59.4L365.341 60.1071L366.048 60.8144L366.755 60.107L366.048 59.4ZM365.528 58.146V57.146H364.528V58.146H365.528ZM365.528 119.152H364.528V120.152L365.528 120.152L365.528 119.152ZM325.419 163.544L324.712 164.251L325.419 164.958L326.126 164.251L325.419 163.544ZM366.048 117.897L366.755 117.19L366.048 116.483L365.341 117.19L366.048 117.897ZM322.911 161.035L322.204 160.328L321.497 161.035L322.204 161.742L322.911 161.035ZM324.164 160.516H325.164V159.516H324.164V160.516ZM263.159 160.516V159.516H262.159V160.516H263.159ZM264.413 161.036L265.12 161.743L265.827 161.036L265.12 160.329L264.413 161.036ZM221.275 117.9L221.982 117.193L221.275 116.486L220.568 117.193L221.275 117.9ZM221.794 119.153L221.794 120.153L222.794 120.153V119.153H221.794ZM221.794 58.146H222.794V57.146H221.794V58.146ZM261.904 13.754L262.611 13.0468L261.904 12.3399L261.197 13.0469L261.904 13.754ZM221.275 59.4L220.568 60.1071L221.275 60.8142L221.982 60.1071L221.275 59.4ZM264.413 16.262L265.12 16.9691L265.827 16.2619L265.12 15.5548L264.413 16.262ZM259.32 1.777L260.32 1.78713L260.338 0.0101276L259.338 0L258.338 -0.0101276L258.32 1.76687L259.32 1.777ZM259.338 0V-1H258.604V0V1H259.338V0ZM258.604 0L257.904 -0.714554L257.379 -0.200554L258.079 0.514L258.778 1.22855L259.303 0.714554L258.604 0ZM258.079 0.514L257.366 1.21487L258.607 2.47787L259.32 1.777L260.033 1.07613L258.792 -0.186866L258.079 0.514ZM331.484 2.551L332.184 3.26512L333.45 2.02412L332.75 1.31L332.05 0.595876L330.784 1.83688L331.484 2.551ZM332.75 1.31L333.465 0.611114L332.952 0.0861142L332.237 0.785L331.522 1.48389L332.035 2.00889L332.75 1.31ZM332.237 0.785L332.248 -0.214941L331.512 -0.222941L331.501 0.777L331.49 1.77694L332.226 1.78494L332.237 0.785ZM331.501 0.777L330.501 0.76741L330.484 2.54141L331.484 2.551L332.484 2.56059L332.501 0.78659L331.501 0.777ZM207.745 52.258L208.46 51.5585L207.219 50.2905L206.504 50.99L205.789 51.6895L207.03 52.9575L207.745 52.258ZM206.504 50.99L205.804 50.2754L205.279 50.7894L205.979 51.504L206.678 52.2186L207.203 51.7046L206.504 50.99ZM205.979 51.504L204.979 51.4931L204.971 52.2281L205.971 52.239L206.971 52.2499L206.979 51.5149L205.979 51.504ZM205.971 52.239L205.96 53.2389L207.734 53.2579L207.745 52.258L207.756 51.2581L205.982 51.2391L205.971 52.239ZM206.971 124.422L206.983 123.422L205.206 123.4L205.194 124.4L205.182 125.4L206.959 125.422L206.971 124.422ZM205.194 124.4L204.194 124.389L204.186 125.124L205.186 125.135L206.186 125.146L206.194 124.411L205.194 124.4ZM205.186 125.135L204.471 125.835L204.985 126.36L205.7 125.66L206.414 124.96L205.9 124.435L205.186 125.135ZM205.7 125.66L206.398 126.376L207.669 125.138L206.971 124.422L206.273 123.706L205.002 124.944L205.7 125.66ZM257.452 176L256.752 175.285L255.484 176.526L256.184 177.241L256.883 177.956L258.151 176.715L257.452 176ZM256.184 177.241L255.469 177.941L255.983 178.466L256.698 177.766L257.412 177.066L256.898 176.541L256.184 177.241ZM256.698 177.766L256.687 178.766L257.422 178.774L257.433 177.774L257.444 176.774L256.709 176.766L256.698 177.766ZM257.433 177.774L258.433 177.785L258.452 176.011L257.452 176L256.452 175.989L256.433 177.763L257.433 177.774ZM329.616 176.774L328.616 176.763L328.596 178.537L329.596 178.548L330.596 178.559L330.616 176.785L329.616 176.774ZM329.596 178.548L329.585 179.548L330.319 179.556L330.33 178.556L330.341 177.556L329.607 177.548L329.596 178.548ZM330.33 178.556L331.029 179.271L331.554 178.757L330.855 178.042L330.155 177.327L329.63 177.841L330.33 178.556ZM330.855 178.042L331.57 177.343L330.331 176.075L329.616 176.774L328.901 177.473L330.14 178.741L330.855 178.042ZM381.194 126.289L380.479 126.988L381.719 128.256L382.434 127.557L383.149 126.858L381.909 125.59L381.194 126.289ZM382.434 127.557L383.133 128.272L383.658 127.758L382.959 127.043L382.259 126.328L381.734 126.842L382.434 127.557ZM382.959 127.043L383.959 127.055L383.968 126.32L382.968 126.308L381.968 126.296L381.959 127.031L382.959 127.043ZM382.968 126.308L382.979 125.308L381.205 125.289L381.194 126.289L381.183 127.289L382.957 127.308L382.968 126.308ZM381.967 54.125L381.956 55.1249L383.73 55.1439L383.741 54.144L383.752 53.1441L381.978 53.1251L381.967 54.125ZM383.741 54.144L384.741 54.1535L384.748 53.4185L383.748 53.409L382.748 53.3995L382.741 54.1345L383.741 54.144ZM383.748 53.409L384.463 52.7101L383.95 52.1851L383.235 52.884L382.52 53.5829L383.033 54.1079L383.748 53.409ZM383.235 52.884L382.535 52.1693L381.267 53.4103L381.967 54.125L382.666 54.8397L383.934 53.5987L383.235 52.884ZM324.164 15.009L324.871 15.7161L326.125 14.4621L325.418 13.755L324.711 13.0479L323.457 14.3019L324.164 15.009ZM325.418 13.755L326.125 13.0479L325.605 12.5279L324.898 13.235L324.191 13.9421L324.711 14.4621L325.418 13.755ZM324.898 13.235V12.235H324.164V13.235V14.235H324.898V13.235ZM324.164 13.235H323.164V15.009H324.164H325.164V13.235H324.164ZM263.158 15.009H264.158V13.235H263.158H262.158V15.009H263.158ZM263.158 13.235V12.235H262.423V13.235V14.235H263.158V13.235ZM262.423 13.235L261.716 12.5279L261.196 13.0479L261.903 13.755L262.61 14.4621L263.13 13.9421L262.423 13.235ZM261.903 13.755L261.196 14.4624L262.451 15.7164L263.158 15.009L263.865 14.3016L262.61 13.0476L261.903 13.755ZM367.302 58.146V59.146H369.076V58.146V57.146H367.302V58.146ZM369.076 58.146H370.076V57.411H369.076H368.076V58.146H369.076ZM369.076 57.411L369.783 56.7039L369.263 56.1839L368.556 56.891L367.849 57.5981L368.369 58.1181L369.076 57.411ZM368.556 56.891L367.849 56.1842L366.595 57.4392L367.302 58.146L368.009 58.8528L369.263 57.5978L368.556 56.891ZM367.302 119.152L366.595 119.859L367.849 121.113L368.556 120.406L369.263 119.699L368.009 118.445L367.302 119.152ZM368.556 120.406L369.263 121.113L369.783 120.593L369.076 119.886L368.369 119.179L367.849 119.699L368.556 120.406ZM369.076 119.886H370.076V119.151H369.076H368.076V119.886H369.076ZM369.076 119.151L369.075 118.151L367.301 118.152L367.302 119.152L367.302 120.152L369.076 120.151L369.076 119.151ZM324.164 162.29H323.164V164.064H324.164H325.164V162.29H324.164ZM324.164 164.064V165.064H324.898V164.064V163.064H324.164V164.064ZM324.898 164.064L325.605 164.771L326.125 164.251L325.418 163.544L324.711 162.837L324.191 163.357L324.898 164.064ZM325.418 163.544L326.125 162.837L324.871 161.583L324.164 162.29L323.457 162.997L324.711 164.251L325.418 163.544ZM263.158 162.29L262.451 161.583L261.197 162.837L261.904 163.544L262.611 164.251L263.865 162.997L263.158 162.29ZM261.904 163.544L261.197 164.251L261.717 164.771L262.424 164.064L263.131 163.357L262.611 162.837L261.904 163.544ZM262.424 164.064V165.064H263.159V164.064V163.064H262.424V164.064ZM263.159 164.064L264.159 164.063L264.158 162.289L263.158 162.29L262.158 162.291L262.159 164.065L263.159 164.064ZM220.021 119.152V118.152H218.247V119.152V120.152H220.021V119.152ZM218.247 119.152H217.247V119.887H218.247H219.247V119.152H218.247ZM218.247 119.887L217.539 120.593L218.058 121.113L218.766 120.407L219.474 119.701L218.955 119.181L218.247 119.887ZM218.766 120.407L219.473 121.114L220.728 119.859L220.021 119.152L219.314 118.445L218.059 119.7L218.766 120.407ZM220.021 58.146L220.728 57.4389L219.473 56.1839L218.766 56.891L218.059 57.5981L219.314 58.8531L220.021 58.146ZM218.766 56.891L218.058 56.1846L217.539 56.7046L218.247 57.411L218.955 58.1174L219.474 57.5974L218.766 56.891ZM218.247 57.411H217.247V58.146H218.247H219.247V57.411H218.247ZM218.247 58.146V59.146H220.021V58.146V57.146H218.247V58.146ZM259.301 3.546L259.29 4.54594L331.454 5.31994L331.465 4.32L331.476 3.32006L259.312 2.54606L259.301 3.546ZM331.465 4.32L332.465 4.33043L332.502 0.782429L331.502 0.772L330.502 0.761571L330.465 4.30957L331.465 4.32ZM331.502 0.772L331.513 -0.227943L259.349 -0.999943L259.338 0L259.327 0.999943L331.491 1.77194L331.502 0.772ZM259.338 0L258.338 -0.0104323L258.301 3.53557L259.301 3.546L260.301 3.55643L260.338 0.0104323L259.338 0ZM208.986 53.526L209.685 54.2407L261.26 3.76065L260.561 3.046L259.861 2.33135L208.286 52.8113L208.986 53.526ZM260.561 3.046L261.276 2.34654L258.794 -0.189456L258.079 0.51L257.364 1.20946L259.846 3.74546L260.561 3.046ZM258.079 0.51L257.379 -0.204653L205.804 50.2753L206.504 50.99L207.203 51.7047L258.778 1.22465L258.079 0.51ZM206.504 50.99L205.789 51.6895L208.271 54.2255L208.986 53.526L209.701 52.8265L207.219 50.2905L206.504 50.99ZM208.745 124.441L209.745 124.452L210.519 52.2877L209.519 52.277L208.519 52.2663L207.745 124.43L208.745 124.441ZM209.519 52.277L209.53 51.2771L205.982 51.2391L205.971 52.239L205.96 53.2389L209.508 53.2769L209.519 52.277ZM205.971 52.239L204.971 52.2282L204.194 124.389L205.194 124.4L206.194 124.411L206.971 52.2498L205.971 52.239ZM205.194 124.4L205.182 125.4L208.733 125.441L208.745 124.441L208.756 123.441L205.205 123.4L205.194 124.4ZM258.719 174.756L259.434 174.057L208.954 122.482L208.239 123.181L207.524 123.88L258.004 175.455L258.719 174.756ZM208.239 123.181L207.539 122.466L205.004 124.948L205.704 125.663L206.404 126.378L208.939 123.896L208.239 123.181ZM205.704 125.663L204.989 126.362L255.469 177.937L256.184 177.238L256.899 176.539L206.419 124.964L205.704 125.663ZM256.184 177.238L256.884 177.953L259.419 175.471L258.719 174.756L258.019 174.041L255.484 176.523L256.184 177.238ZM329.635 174.997L329.646 173.997L257.481 173.223L257.47 174.223L257.459 175.223L329.624 175.997L329.635 174.997ZM257.47 174.223L256.47 174.212L256.432 177.76L257.432 177.771L258.432 177.782L258.47 174.234L257.47 174.223ZM257.432 177.771L257.421 178.771L329.585 179.545L329.596 178.545L329.607 177.545L257.443 176.771L257.432 177.771ZM329.596 178.545L330.596 178.556L330.635 175.008L329.635 174.997L328.635 174.986L328.596 178.534L329.596 178.545ZM379.948 125.023L379.248 124.308L327.674 174.785L328.374 175.5L329.073 176.215L380.647 125.738L379.948 125.023ZM328.374 175.5L327.659 176.199L330.141 178.735L330.856 178.036L331.571 177.337L329.089 174.801L328.374 175.5ZM330.856 178.036L331.555 178.751L383.129 128.27L382.43 127.555L381.73 126.84L330.156 177.321L330.856 178.036ZM382.43 127.555L383.144 126.855L380.662 124.323L379.948 125.023L379.234 125.723L381.716 128.255L382.43 127.555ZM380.194 54.107L379.194 54.0963L378.421 126.26L379.421 126.271L380.421 126.282L381.194 54.1177L380.194 54.107ZM379.421 126.271L379.41 127.271L382.958 127.309L382.969 126.309L382.98 125.309L379.432 125.271L379.421 126.271ZM382.969 126.309L383.969 126.32L384.742 54.1557L383.742 54.145L382.742 54.1343L381.969 126.298L382.969 126.309ZM383.742 54.145L383.753 53.1451L380.205 53.1071L380.194 54.107L380.183 55.1069L383.731 55.1449L383.742 54.145ZM330.215 3.792L329.5 4.49148L379.979 56.0655L380.694 55.366L381.409 54.6665L330.93 3.09252L330.215 3.792ZM380.694 55.366L381.393 56.0808L383.93 53.5988L383.231 52.884L382.532 52.1692L379.995 54.6512L380.694 55.366ZM383.231 52.884L383.946 52.1845L333.465 0.610506L332.75 1.31L332.035 2.00949L382.516 53.5835L383.231 52.884ZM332.75 1.31L332.05 0.595463L329.515 3.07746L330.215 3.792L330.915 4.50654L333.45 2.02454L332.75 1.31ZM324.164 13.235V12.235H263.158V13.235V14.235H324.164V13.235ZM263.158 13.235L262.158 13.2353L262.159 16.7833L263.159 16.783L264.159 16.7827L264.158 13.2347L263.158 13.235ZM263.159 16.783V17.783H324.164V16.783V15.783H263.159V16.783ZM324.164 16.783H325.164V13.235H324.164H323.164V16.783H324.164ZM368.556 56.891L369.263 56.1839L326.126 13.0469L325.419 13.754L324.712 14.4611L367.849 57.5981L368.556 56.891ZM325.419 13.754L324.712 13.047L322.204 15.556L322.911 16.263L323.618 16.97L326.126 14.461L325.419 13.754ZM322.911 16.263L322.204 16.9701L365.341 60.1071L366.048 59.4L366.755 58.6929L323.618 15.5559L322.911 16.263ZM366.048 59.4L366.755 60.107L369.263 57.598L368.556 56.891L367.849 56.184L365.341 58.693L366.048 59.4ZM369.076 119.151H370.076V58.146H369.076H368.076V119.151H369.076ZM369.076 58.146V57.146H365.528V58.146V59.146H369.076V58.146ZM365.528 58.146H364.528V119.152H365.528H366.528V58.146H365.528ZM365.528 119.152L365.528 120.152L369.076 120.151L369.076 119.151L369.076 118.151L365.528 118.152L365.528 119.152ZM325.419 163.544L326.126 164.251L369.263 121.113L368.556 120.406L367.849 119.699L324.712 162.837L325.419 163.544ZM368.556 120.406L369.263 119.699L366.755 117.19L366.048 117.897L365.341 118.604L367.849 121.113L368.556 120.406ZM366.048 117.897L365.341 117.19L322.204 160.328L322.911 161.035L323.618 161.742L366.755 118.604L366.048 117.897ZM322.911 161.035L322.204 161.742L324.712 164.251L325.419 163.544L326.126 162.837L323.618 160.328L322.911 161.035ZM263.159 164.064V165.064H324.164V164.064V163.064H263.159V164.064ZM324.164 164.064H325.164V160.516H324.164H323.164V164.064H324.164ZM324.164 160.516V159.516H263.159V160.516V161.516H324.164V160.516ZM263.159 160.516H262.159V164.064H263.159H264.159V160.516H263.159ZM218.766 120.407L218.059 121.114L261.197 164.251L261.904 163.544L262.611 162.837L219.473 119.7L218.766 120.407ZM261.904 163.544L262.611 164.251L265.12 161.743L264.413 161.036L263.706 160.329L261.197 162.837L261.904 163.544ZM264.413 161.036L265.12 160.329L221.982 117.193L221.275 117.9L220.568 118.607L263.706 161.743L264.413 161.036ZM221.275 117.9L220.568 117.193L218.059 119.7L218.766 120.407L219.473 121.114L221.982 118.607L221.275 117.9ZM218.247 58.146H217.247V119.152H218.247H219.247V58.146H218.247ZM218.247 119.152L218.247 120.152L221.794 120.153L221.794 119.153L221.794 118.153L218.247 118.152L218.247 119.152ZM221.794 119.153H222.794V58.146H221.794H220.794V119.153H221.794ZM221.794 58.146V57.146H218.247V58.146V59.146H221.794V58.146ZM261.904 13.754L261.197 13.0469L218.059 56.1839L218.766 56.891L219.473 57.5981L262.611 14.4611L261.904 13.754ZM218.766 56.891L218.059 57.5981L220.568 60.1071L221.275 59.4L221.982 58.6929L219.473 56.1839L218.766 56.891ZM221.275 59.4L221.982 60.1071L265.12 16.9691L264.413 16.262L263.706 15.5549L220.568 58.6929L221.275 59.4ZM264.413 16.262L265.12 15.5548L262.611 13.0468L261.904 13.754L261.197 14.4612L263.706 16.9692L264.413 16.262Z" fill="black" mask="url(#path-12-inside-2_1_438)"/>
<path d="M300.105 175.626V325.112H287.687V175.626" fill="#EADFFC"/>
<path d="M300.105 175.626V325.112H287.687V175.626" stroke="black" stroke-width="2"/>
<path d="M278.818 312.694H170.606V325.112H278.818V312.694Z" fill="#EADFFC" stroke="black" stroke-width="2"/>
<path d="M243.619 256.084L249.613 272.611H202.259L207.383 256.084H243.619Z" fill="#EADFFC" stroke="black"/>
<path d="M253.052 284.387L261.183 310.554H189.998L198.498 285.943L198.526 285.863V284.387H253.052Z" fill="white" stroke="black"/>
<path d="M229.751 207.987L241.274 243.267H210.848L220.107 207.987H229.751Z" fill="white" stroke="black"/>
<path d="M258.67 310.503L259.262 312.445L259.407 312.924L260.938 312.455V313.055H189.734L189.733 312.452L190.783 312.773L191.262 312.92L191.407 312.441L191.998 310.503H258.67ZM263.162 313.051H261.94V312.149L262.807 311.886L263.162 313.051ZM188.732 312.147V313.051H187.508L187.863 311.883L188.732 312.147ZM260.94 310.503V311.406L260.938 311.407V311.41L260.072 311.675L259.716 310.503H260.94ZM190.953 310.503L190.597 311.671L189.732 311.407V310.503H190.953ZM197.25 284.207V286.111H198.389L191.258 309.503H188.731L188.732 310.004V311.101L188.159 310.927L196.385 283.943L197.25 284.207ZM262.509 310.928L261.94 311.1V309.503H259.411L252.278 286.111H253.419V284.211L254.283 283.947L262.509 310.928ZM252.419 285.111H251.974L251.846 284.691L252.419 284.516V285.111ZM252.419 282.563V283.471L251.076 283.881L250.598 284.027L250.744 284.505L250.929 285.111H199.739L199.926 284.501L200.071 284.022L199.593 283.877L198.25 283.467V282.563H252.419ZM198.822 284.686L198.693 285.111H198.25V284.512L198.822 284.686ZM253.867 282.563L253.995 282.986L253.421 283.162L253.422 282.563H253.867ZM197.25 282.563V283.161L196.677 282.986L196.806 282.563H197.25ZM251.399 274.467H250.175V273.563L251.042 273.299L251.399 274.467ZM246.908 271.919L247.499 273.857L247.644 274.335L248.123 274.189L249.174 273.868L249.175 274.467H201.496V273.868L202.547 274.189L203.025 274.335L203.171 273.857L203.762 271.919H246.908ZM200.496 273.563V274.467H199.271L199.628 273.299L200.496 273.563ZM202.717 271.919L202.36 273.087L201.496 272.823V271.919H202.717ZM249.174 271.919V272.823L248.308 273.087L247.953 271.919H249.174ZM205.905 255.824V257.727H207.043L203.021 270.919H200.496V272.517L199.923 272.343L205.038 255.562L205.905 255.824ZM250.746 272.343L250.174 272.517V270.919H247.648L243.627 257.727H244.766V255.823L245.63 255.559L250.746 272.343ZM243.766 256.727H243.322L243.192 256.303L243.765 256.129L243.766 256.128V256.727ZM243.766 254.183V255.083L242.423 255.493L241.945 255.638L242.091 256.117L242.277 256.727H208.392L208.579 256.117L208.724 255.638L208.247 255.493L206.905 255.083V254.183H243.766ZM207.476 256.303L207.348 256.727H206.905V256.128L207.476 256.303ZM205.905 254.183V254.778L205.329 254.602L205.457 254.183H205.905ZM245.213 254.18L245.341 254.601L244.766 254.777L244.767 254.18H245.213ZM208.738 245.055L209.15 245.18V246.084H207.926L208.282 244.916L208.738 245.055ZM238.254 243.536L238.845 245.473L238.99 245.952L239.469 245.806L240.52 245.485V246.083H210.15V245.485L211.201 245.806L211.68 245.952L211.825 245.473L212.416 243.536H238.254ZM242.744 246.083H241.52V245.18L242.388 244.915L242.744 246.083ZM211.371 243.536L211.015 244.703L210.15 244.439V243.536H211.371ZM240.52 243.536V244.439L239.655 244.703L239.3 243.536H240.52ZM220.508 207.927V209.831H221.646L211.676 242.536H209.15V244.135L208.577 243.96L219.642 207.663L220.508 207.927ZM242.092 243.959L241.52 244.134V242.536H238.995L229.023 209.831H230.161L230.162 209.332L230.163 207.927L230.515 207.819L231.026 207.663L242.092 243.959ZM229.162 208.831H228.718L228.589 208.407L229.162 208.232V208.831ZM229.162 206.283V207.186L227.819 207.596L227.341 207.743L227.486 208.221L227.673 208.831H222.997L223.183 208.221L223.329 207.743L222.85 207.596L221.508 207.186V206.283H229.162ZM222.08 208.407L221.952 208.831H221.508V208.232L222.08 208.407ZM220.508 206.283V206.881L219.934 206.706L220.063 206.283H220.508ZM230.605 206.283L230.735 206.706L230.164 206.88L230.165 206.283H230.605Z" fill="#35008B" stroke="black"/>
<path d="M322.964 17.406L365.334 59.7751V118.626L322.969 159.601H262.834L222.369 118.634V59.7693L262.839 17.406H322.964Z" fill="#EADFFC" stroke="black"/>
<path d="M291.225 116.901C292.903 116.901 294.263 118.261 294.263 119.939C294.263 121.617 292.903 122.977 291.225 122.977C289.547 122.977 288.187 121.617 288.187 119.939C288.187 118.261 289.547 116.901 291.225 116.901Z" fill="#35008B" stroke="black"/>
<path d="M291.225 62.055H291.226C292.904 62.055 294.264 63.4153 294.264 65.0931V105.786C294.264 107.464 292.904 108.824 291.226 108.824H291.225C289.547 108.824 288.187 107.464 288.187 105.786V65.0931C288.187 63.4152 289.547 62.055 291.225 62.055Z" fill="#35008B" stroke="black"/>
</svg>
