<svg width="170" height="142" viewBox="0 0 170 142" fill="none" xmlns="http://www.w3.org/2000/svg">
<g clip-path="url(#clip0_1_1353)">
<path d="M102.25 58.54C93.8701 58.59 85.3601 58.2 77.4001 55.99C69.4401 53.78 62.4001 49.61 56.0001 44.74C51.8101 41.57 48.0001 39.05 42.5601 39.43C37.2411 39.7095 32.1535 41.6941 28.0501 45.09C21.1301 51.15 22.1801 62.35 24.9401 70.23C29.1001 82.1 41.7601 90.34 52.5101 95.71C64.9401 101.92 78.5901 105.53 92.2801 107.6C104.28 109.42 119.69 110.75 130.08 102.91C139.63 95.72 142.25 79.28 139.91 68.18C139.341 64.9015 137.595 61.9433 135 59.86C128.29 54.96 118.29 58.23 110.75 58.4C108 58.46 105.11 58.53 102.25 58.54Z" fill="#F2F2F2"/>
<path d="M61.3899 19.73V24.03" stroke="#CFCFCF" stroke-width="0.85" stroke-linecap="round" stroke-linejoin="round"/>
<path d="M59.24 21.88H63.54" stroke="#CFCFCF" stroke-width="0.85" stroke-linecap="round" stroke-linejoin="round"/>
<path d="M142.97 105.44V109.74" stroke="#CFCFCF" stroke-width="0.85" stroke-linecap="round" stroke-linejoin="round"/>
<path d="M140.82 107.59H145.12" stroke="#CFCFCF" stroke-width="0.85" stroke-linecap="round" stroke-linejoin="round"/>
<path d="M28.8999 86.87C29.4412 86.87 29.8799 86.4313 29.8799 85.89C29.8799 85.3488 29.4412 84.91 28.8999 84.91C28.3587 84.91 27.9199 85.3488 27.9199 85.89C27.9199 86.4313 28.3587 86.87 28.8999 86.87Z" fill="#CFCFCF"/>
<path d="M112.34 24.17C112.881 24.17 113.32 23.7312 113.32 23.19C113.32 22.6487 112.881 22.21 112.34 22.21C111.799 22.21 111.36 22.6487 111.36 23.19C111.36 23.7312 111.799 24.17 112.34 24.17Z" fill="#CFCFCF"/>
<path d="M85.18 127.04C105.449 127.04 121.88 126.019 121.88 124.76C121.88 123.501 105.449 122.48 85.18 122.48C64.9111 122.48 48.48 123.501 48.48 124.76C48.48 126.019 64.9111 127.04 85.18 127.04Z" fill="#F2F2F2"/>
<path d="M56.9101 31.41H110.21C111.536 31.41 112.808 31.9368 113.746 32.8745C114.683 33.8122 115.21 35.084 115.21 36.41V99.82C115.21 101.146 114.683 102.418 113.746 103.356C112.808 104.293 111.536 104.82 110.21 104.82H50.0801C48.754 104.82 47.4822 104.293 46.5445 103.356C45.6069 102.418 45.0801 101.146 45.0801 99.82V43.36L56.9101 31.41Z" fill="white" stroke="#BABABA" stroke-linecap="round" stroke-linejoin="round"/>
<path d="M114.97 62.3101H60.01V105.43H114.97V62.3101Z" fill="#D2D2D2"/>
<path d="M45.0801 43.36H54.7701C55.3386 43.3574 55.8829 43.1297 56.2839 42.7268C56.6849 42.3239 56.9101 41.7785 56.9101 41.21V31.41L45.0801 43.36Z" fill="white" stroke="#BABABA" stroke-linecap="round" stroke-linejoin="round"/>
<path d="M114.7 48.54H60.34C58.2248 48.54 56.51 50.2548 56.51 52.37V64C56.51 66.1153 58.2248 67.83 60.34 67.83H114.7C116.815 67.83 118.53 66.1153 118.53 64V52.37C118.53 50.2548 116.815 48.54 114.7 48.54Z" fill="white" stroke="#BABABA" stroke-linecap="round" stroke-linejoin="round"/>
<path d="M67.07 61.55C68.9146 61.55 70.41 60.0546 70.41 58.21C70.41 56.3654 68.9146 54.87 67.07 54.87C65.2253 54.87 63.73 56.3654 63.73 58.21C63.73 60.0546 65.2253 61.55 67.07 61.55Z" fill="#D2D2D2"/>
<path d="M77.57 61.55C79.4146 61.55 80.91 60.0546 80.91 58.21C80.91 56.3654 79.4146 54.87 77.57 54.87C75.7253 54.87 74.23 56.3654 74.23 58.21C74.23 60.0546 75.7253 61.55 77.57 61.55Z" fill="#D2D2D2"/>
<path d="M88.06 61.55C89.9046 61.55 91.4 60.0546 91.4 58.21C91.4 56.3654 89.9046 54.87 88.06 54.87C86.2153 54.87 84.72 56.3654 84.72 58.21C84.72 60.0546 86.2153 61.55 88.06 61.55Z" fill="#D2D2D2"/>
<path d="M114.7 69.92H60.34C58.2248 69.92 56.51 71.6348 56.51 73.75V85.38C56.51 87.4953 58.2248 89.21 60.34 89.21H114.7C116.815 89.21 118.53 87.4953 118.53 85.38V73.75C118.53 71.6348 116.815 69.92 114.7 69.92Z" fill="white" stroke="#BABABA" stroke-linecap="round" stroke-linejoin="round"/>
<path d="M67.07 82.94C68.9146 82.94 70.41 81.4446 70.41 79.6C70.41 77.7554 68.9146 76.26 67.07 76.26C65.2253 76.26 63.73 77.7554 63.73 79.6C63.73 81.4446 65.2253 82.94 67.07 82.94Z" fill="#D2D2D2"/>
<path d="M77.57 82.94C79.4146 82.94 80.91 81.4446 80.91 79.6C80.91 77.7554 79.4146 76.26 77.57 76.26C75.7253 76.26 74.23 77.7554 74.23 79.6C74.23 81.4446 75.7253 82.94 77.57 82.94Z" fill="#D2D2D2"/>
<path d="M88.06 82.94C89.9046 82.94 91.4 81.4446 91.4 79.6C91.4 77.7554 89.9046 76.26 88.06 76.26C86.2153 76.26 84.72 77.7554 84.72 79.6C84.72 81.4446 86.2153 82.94 88.06 82.94Z" fill="#D2D2D2"/>
<path d="M114.7 91.3101H60.34C58.2248 91.3101 56.51 93.0248 56.51 95.1401V106.77C56.51 108.885 58.2248 110.6 60.34 110.6H114.7C116.815 110.6 118.53 108.885 118.53 106.77V95.1401C118.53 93.0248 116.815 91.3101 114.7 91.3101Z" fill="white" stroke="#BABABA" stroke-linecap="round" stroke-linejoin="round"/>
<path d="M67.07 104.32C68.9146 104.32 70.41 102.825 70.41 100.98C70.41 99.1354 68.9146 97.64 67.07 97.64C65.2253 97.64 63.73 99.1354 63.73 100.98C63.73 102.825 65.2253 104.32 67.07 104.32Z" fill="#D2D2D2"/>
<path d="M77.57 104.32C79.4146 104.32 80.91 102.825 80.91 100.98C80.91 99.1354 79.4146 97.64 77.57 97.64C75.7253 97.64 74.23 99.1354 74.23 100.98C74.23 102.825 75.7253 104.32 77.57 104.32Z" fill="#D2D2D2"/>
<path d="M88.06 104.32C89.9046 104.32 91.4 102.825 91.4 100.98C91.4 99.1354 89.9046 97.64 88.06 97.64C86.2153 97.64 84.72 99.1354 84.72 100.98C84.72 102.825 86.2153 104.32 88.06 104.32Z" fill="#D2D2D2"/>
<path d="M119.62 72.8999C131.069 72.8999 140.35 63.6188 140.35 52.1699C140.35 40.7211 131.069 31.4399 119.62 31.4399C108.171 31.4399 98.8899 40.7211 98.8899 52.1699C98.8899 63.6188 108.171 72.8999 119.62 72.8999Z" fill="white" stroke="#BABABA" stroke-linecap="round" stroke-linejoin="round"/>
<path d="M134.34 67.21L139.86 72.73" stroke="#BABABA" stroke-linecap="round" stroke-linejoin="round"/>
<path d="M139.243 70.0502L137.53 71.8428C136.759 72.6493 136.788 73.9279 137.594 74.6988L152.485 88.9336C153.291 89.7045 154.57 89.6757 155.341 88.8693L157.054 87.0766C157.825 86.2702 157.796 84.9915 156.99 84.2206L142.099 69.9859C141.293 69.215 140.014 69.2438 139.243 70.0502Z" fill="white" stroke="#BABABA" stroke-linecap="round" stroke-linejoin="round"/>
</g>
<defs>
<clipPath id="clip0_1_1353">
<rect width="170" height="142" fill="white"/>
</clipPath>
</defs>
</svg>
